<svg xmlns="http://www.w3.org/2000/svg" xmlns:xlink="http://www.w3.org/1999/xlink" width="1000" zoomAndPan="magnify" viewBox="0 0 750 749.999995" height="1000" preserveAspectRatio="xMidYMid meet" version="1.0"><defs><clipPath id="03637cef9a"><path d="M 133.96875 340.695312 L 202.96875 340.695312 L 202.96875 393.195312 L 133.96875 393.195312 Z M 133.96875 340.695312 " clip-rule="nonzero"/></clipPath></defs><rect x="-75" width="900" fill="#ffffff" y="-74.999999" height="899.999994" fill-opacity="1"/><rect x="-75" width="900" fill="#ffffff" y="-74.999999" height="899.999994" fill-opacity="1"/><g clip-path="url(#03637cef9a)"><path fill="#ffffff" d="M 169.953125 340.789062 L 158.796875 360.070312 C 158.765625 360.109375 158.742188 360.148438 158.71875 360.195312 L 153.171875 369.773438 L 148.648438 365.25 L 133.921875 393.0625 L 137.296875 393.0625 L 149.398438 370.210938 L 153.8125 374.617188 L 160.429688 363.179688 L 164.554688 366.710938 L 169.773438 362.234375 L 174.984375 366.710938 L 178.484375 363.703125 L 190.585938 387.046875 L 193.617188 382.515625 L 199.476562 393.0625 L 202.890625 393.0625 L 193.84375 376.789062 L 190.914062 381.195312 L 180.453125 361.023438 C 180.453125 361.015625 180.453125 361.015625 180.453125 361.015625 C 180.390625 360.75 180.265625 360.5 180.085938 360.304688 Z M 169.8125 346.976562 L 177.078125 360.992188 L 174.984375 362.789062 L 169.773438 358.3125 L 164.554688 362.789062 L 161.953125 360.554688 Z M 169.8125 346.976562 " fill-opacity="1" fill-rule="nonzero"/></g><path fill="#ffffff" d="M 203.390625 340.0625 L 229.453125 340.0625 L 229.453125 347.75 L 220.640625 347.75 L 220.640625 393.75 L 212.203125 393.75 L 212.203125 347.75 L 203.390625 347.75 Z M 203.390625 340.0625 " fill-opacity="1" fill-rule="nonzero"/><path fill="#ffffff" d="M 237.875 393.75 L 229.4375 393.75 L 229.4375 340.0625 L 237.875 340.0625 L 237.875 363.0625 L 247.46875 363.0625 L 247.46875 340.0625 L 256.0625 340.0625 L 256.0625 393.75 L 247.46875 393.75 L 247.46875 370.75 L 237.875 370.75 Z M 237.875 393.75 " fill-opacity="1" fill-rule="nonzero"/><path fill="#ffffff" d="M 266.773438 362.6875 L 278.367188 362.6875 L 278.367188 370.375 L 266.773438 370.375 L 266.773438 386.09375 L 281.335938 386.09375 L 281.335938 393.75 L 258.335938 393.75 L 258.335938 340.0625 L 281.335938 340.0625 L 281.335938 347.75 L 266.773438 347.75 Z M 266.773438 362.6875 " fill-opacity="1" fill-rule="nonzero"/><path fill="#ffffff" d="M 308.640625 378.1875 L 314.390625 340.0625 L 326.109375 340.0625 L 326.109375 393.75 L 318.140625 393.75 L 318.140625 355.25 L 312.328125 393.75 L 304.359375 393.75 L 298.046875 355.78125 L 298.046875 393.75 L 290.703125 393.75 L 290.703125 340.0625 L 302.421875 340.0625 Z M 308.640625 378.1875 " fill-opacity="1" fill-rule="nonzero"/><path fill="#ffffff" d="M 336.15625 381.40625 C 336.15625 383.34375 336.546875 384.710938 337.34375 385.5 C 338.132812 386.296875 339.195312 386.6875 340.53125 386.6875 C 341.859375 386.6875 342.921875 386.296875 343.71875 385.5 C 344.507812 384.710938 344.90625 383.34375 344.90625 381.40625 L 344.90625 352.40625 C 344.90625 350.46875 344.507812 349.109375 343.71875 348.3125 C 342.921875 347.523438 341.859375 347.125 340.53125 347.125 C 339.195312 347.125 338.132812 347.523438 337.34375 348.3125 C 336.546875 349.109375 336.15625 350.46875 336.15625 352.40625 Z M 327.71875 352.9375 C 327.71875 348.609375 328.8125 345.28125 331 342.96875 C 333.203125 340.640625 336.382812 339.46875 340.53125 339.46875 C 344.671875 339.46875 347.84375 340.640625 350.03125 342.96875 C 352.234375 345.28125 353.34375 348.609375 353.34375 352.9375 L 353.34375 380.875 C 353.34375 385.210938 352.234375 388.546875 350.03125 390.875 C 347.84375 393.210938 344.671875 394.375 340.53125 394.375 C 336.382812 394.375 333.203125 393.210938 331 390.875 C 328.8125 388.546875 327.71875 385.210938 327.71875 380.875 Z M 327.71875 352.9375 " fill-opacity="1" fill-rule="nonzero"/><path fill="#ffffff" d="M 362.992188 340.0625 L 362.992188 381.46875 C 362.992188 383.429688 363.382812 384.796875 364.179688 385.5625 C 364.96875 386.3125 366.03125 386.6875 367.367188 386.6875 C 368.695312 386.6875 369.757812 386.3125 370.554688 385.5625 C 371.34375 384.796875 371.742188 383.429688 371.742188 381.46875 L 371.742188 340.0625 L 379.710938 340.0625 L 379.710938 380.9375 C 379.710938 385.296875 378.648438 388.640625 376.523438 390.96875 C 374.398438 393.28125 371.257812 394.4375 367.117188 394.4375 C 362.992188 394.4375 359.867188 393.28125 357.742188 390.96875 C 355.617188 388.640625 354.554688 385.296875 354.554688 380.9375 L 354.554688 340.0625 Z M 362.992188 340.0625 " fill-opacity="1" fill-rule="nonzero"/><path fill="#ffffff" d="M 389.140625 354.875 L 389.140625 393.75 L 381.546875 393.75 L 381.546875 340.0625 L 392.109375 340.0625 L 400.796875 372.1875 L 400.796875 340.0625 L 408.296875 340.0625 L 408.296875 393.75 L 399.640625 393.75 Z M 389.140625 354.875 " fill-opacity="1" fill-rule="nonzero"/><path fill="#ffffff" d="M 408.230469 340.0625 L 434.292969 340.0625 L 434.292969 347.75 L 425.480469 347.75 L 425.480469 393.75 L 417.042969 393.75 L 417.042969 347.75 L 408.230469 347.75 Z M 408.230469 340.0625 " fill-opacity="1" fill-rule="nonzero"/><path fill="#ffffff" d="M 461.589844 393.75 L 453.058594 393.75 L 451.621094 384 L 441.246094 384 L 439.808594 393.75 L 432.058594 393.75 L 440.652344 340.0625 L 452.996094 340.0625 Z M 442.339844 376.71875 L 450.464844 376.71875 L 446.402344 349.5625 Z M 442.339844 376.71875 " fill-opacity="1" fill-rule="nonzero"/><path fill="#ffffff" d="M 461.644531 340.0625 L 470.082031 340.0625 L 470.082031 393.75 L 461.644531 393.75 Z M 461.644531 340.0625 " fill-opacity="1" fill-rule="nonzero"/><path fill="#ffffff" d="M 479.90625 354.875 L 479.90625 393.75 L 472.3125 393.75 L 472.3125 340.0625 L 482.875 340.0625 L 491.5625 372.1875 L 491.5625 340.0625 L 499.0625 340.0625 L 499.0625 393.75 L 490.40625 393.75 Z M 479.90625 354.875 " fill-opacity="1" fill-rule="nonzero"/><path fill="#ffffff" d="M 525.746094 373.75 L 525.746094 380.875 C 525.746094 385.210938 524.683594 388.546875 522.558594 390.875 C 520.433594 393.210938 517.308594 394.375 513.183594 394.375 C 509.035156 394.375 505.902344 393.210938 503.777344 390.875 C 501.652344 388.546875 500.589844 385.210938 500.589844 380.875 L 500.589844 352.9375 C 500.589844 348.609375 501.652344 345.28125 503.777344 342.96875 C 505.902344 340.640625 509.035156 339.46875 513.183594 339.46875 C 517.308594 339.46875 520.433594 340.640625 522.558594 342.96875 C 524.683594 345.28125 525.746094 348.609375 525.746094 352.9375 L 525.746094 358.15625 L 517.777344 358.15625 L 517.777344 352.40625 C 517.777344 350.46875 517.378906 349.109375 516.589844 348.3125 C 515.792969 347.523438 514.730469 347.125 513.402344 347.125 C 512.066406 347.125 511.003906 347.523438 510.214844 348.3125 C 509.417969 349.109375 509.027344 350.46875 509.027344 352.40625 L 509.027344 381.40625 C 509.027344 383.34375 509.417969 384.703125 510.214844 385.46875 C 511.003906 386.242188 512.066406 386.625 513.402344 386.625 C 514.730469 386.625 515.792969 386.242188 516.589844 385.46875 C 517.378906 384.703125 517.777344 383.34375 517.777344 381.40625 L 517.777344 373.75 Z M 525.746094 373.75 " fill-opacity="1" fill-rule="nonzero"/><path fill="#ffffff" d="M 554.347656 393.75 L 545.816406 393.75 L 544.378906 384 L 534.003906 384 L 532.566406 393.75 L 524.816406 393.75 L 533.410156 340.0625 L 545.753906 340.0625 Z M 535.097656 376.71875 L 543.222656 376.71875 L 539.160156 349.5625 Z M 535.097656 376.71875 " fill-opacity="1" fill-rule="nonzero"/><path fill="#ffffff" d="M 572.277344 378.1875 L 578.027344 340.0625 L 589.746094 340.0625 L 589.746094 393.75 L 581.777344 393.75 L 581.777344 355.25 L 575.964844 393.75 L 567.996094 393.75 L 561.683594 355.78125 L 561.683594 393.75 L 554.339844 393.75 L 554.339844 340.0625 L 566.058594 340.0625 Z M 572.277344 378.1875 " fill-opacity="1" fill-rule="nonzero"/><path fill="#ffffff" d="M 604.480469 340.0625 C 608.707031 340.0625 611.855469 341.1875 613.917969 343.4375 C 615.996094 345.6875 617.042969 348.992188 617.042969 353.34375 L 617.042969 360.3125 C 617.042969 364.671875 615.996094 367.96875 613.917969 370.21875 C 611.855469 372.46875 608.707031 373.59375 604.480469 373.59375 L 600.480469 373.59375 L 600.480469 393.75 L 592.042969 393.75 L 592.042969 340.0625 Z M 600.480469 347.75 L 600.480469 365.90625 L 604.480469 365.90625 C 605.808594 365.90625 606.832031 365.554688 607.542969 364.84375 C 608.246094 364.117188 608.605469 362.78125 608.605469 360.84375 L 608.605469 352.8125 C 608.605469 350.859375 608.246094 349.523438 607.542969 348.8125 C 606.832031 348.109375 605.808594 347.75 604.480469 347.75 Z M 600.480469 347.75 " fill-opacity="1" fill-rule="nonzero"/></svg>