<svg xmlns="http://www.w3.org/2000/svg" xmlns:xlink="http://www.w3.org/1999/xlink" width="500" zoomAndPan="magnify" viewBox="0 0 375 374.999991" height="500" preserveAspectRatio="xMidYMid meet" version="1.0"><defs><clipPath id="8c999f603a"><path d="M 134.988281 147.589844 L 239.988281 147.589844 L 239.988281 227.089844 L 134.988281 227.089844 Z M 134.988281 147.589844 " clip-rule="nonzero"/></clipPath></defs><g clip-path="url(#8c999f603a)"><path fill="#5f5c95" d="M 189.761719 147.738281 L 172.773438 177.085938 C 172.730469 177.148438 172.695312 177.210938 172.660156 177.28125 L 164.214844 191.855469 L 157.328125 184.972656 L 134.914062 227.308594 L 140.050781 227.308594 L 158.464844 192.519531 L 165.1875 199.238281 L 175.265625 181.824219 L 181.539062 187.195312 L 189.476562 180.390625 L 197.414062 187.195312 L 202.742188 182.625 L 221.160156 218.15625 L 225.769531 211.25 L 234.691406 227.308594 L 239.882812 227.308594 L 226.125 202.53125 L 221.65625 209.242188 L 205.734375 178.539062 C 205.734375 178.53125 205.734375 178.53125 205.734375 178.53125 C 205.648438 178.121094 205.453125 177.75 205.175781 177.449219 Z M 189.546875 157.167969 L 200.605469 178.492188 L 197.414062 181.222656 L 189.476562 174.417969 L 181.539062 181.222656 L 177.578125 177.828125 Z M 189.546875 157.167969 " fill-opacity="1" fill-rule="nonzero"/></g></svg>
